# This file uses meters as units for non-parametric coordinates.

v -127.123901 0.000000 -1.500000
v -129.721924 0.000000 -3.000000
v -131.221924 0.000000 -2.598083
v -132.721924 0.000000 0.000000
v -131.221924 0.000000 2.598083
v -129.721924 0.000000 3.000000
v -127.123901 0.000000 1.500000
v -126.721924 0.000000 0.000000
v -127.123901 62.460861 -1.500000
v -129.721924 62.460861 -3.000000
v -131.221924 62.460861 -2.598083
v -132.721924 62.460861 0.000000
v -131.221924 62.460861 2.598083
v -129.721924 62.460861 3.000000
v -127.123901 62.460861 1.500000
v -126.721924 62.460861 0.000000
v -123.837402 69.351212 -2.598083
v -123.837402 67.851212 -3.000000
v -123.837402 65.253136 -1.500000
v -123.837402 64.851212 0.000000
v -123.837402 65.253136 1.500000
v -123.837402 67.851212 3.000000
v -123.837402 69.351212 2.598083
v -123.837402 70.851212 0.000000
v -129.598145 64.407417 -3.000000
v -131.073975 64.596054 -2.598083
v -132.549561 64.784668 0.000000
v -131.073975 64.596054 2.598083
v -129.598145 64.407417 3.000000
v -127.042236 64.080688 1.500000
v -126.646851 64.030151 0.000000
v -127.042236 64.080688 -1.500000
v -128.926392 66.068054 -3.000000
v -130.153198 66.859604 -2.598083
v -131.379761 67.651085 0.000000
v -130.153198 66.859604 2.598083
v -128.926392 66.068054 3.000000
v -126.802002 64.697144 1.500000
v -126.473389 64.485062 0.000000
v -126.802002 64.697144 -1.500000
v -127.601440 67.212593 -3.000000
v -128.255371 68.527878 -2.598083
v -128.909180 69.843048 0.000000
v -128.255371 68.527878 2.598083
v -127.601440 67.212593 3.000000
v -126.469116 64.934662 1.500000
v -126.293823 64.582268 0.000000
v -126.469116 64.934662 -1.500000
v -125.812622 67.756050 -3.000000
v -125.957520 69.241776 -2.598083
v -126.102417 70.727402 0.000000
v -125.957520 69.241776 2.598083
v -125.812622 67.756050 3.000000
v -125.561646 65.182846 1.500000
v -125.522705 64.784775 0.000000
v -125.561646 65.182846 -1.500000
v 127.123901 0.000000 -1.500000
v 129.721924 0.000000 -3.000000
v 131.221924 0.000000 -2.598083
v 132.721924 0.000000 0.000000
v 131.221924 0.000000 2.598083
v 129.721924 0.000000 3.000000
v 127.123901 0.000000 1.500000
v 126.721924 0.000000 0.000000
v 127.123901 62.460861 -1.500000
v 129.721924 62.460861 -3.000000
v 131.221924 62.460861 -2.598083
v 132.721924 62.460861 0.000000
v 131.221924 62.460861 2.598083
v 129.721924 62.460861 3.000000
v 127.123901 62.460861 1.500000
v 126.721924 62.460861 0.000000
v 123.837402 69.351212 -2.598083
v 123.837402 67.851212 -3.000000
v 123.837402 65.253136 -1.500000
v 123.837402 64.851212 0.000000
v 123.837402 65.253136 1.500000
v 123.837402 67.851212 3.000000
v 123.837402 69.351212 2.598083
v 123.837402 70.851212 0.000000
v 129.598145 64.407417 -3.000000
v 131.073975 64.596054 -2.598083
v 132.549561 64.784668 0.000000
v 131.073975 64.596054 2.598083
v 129.598145 64.407417 3.000000
v 127.042236 64.080688 1.500000
v 126.646851 64.030151 0.000000
v 127.042236 64.080688 -1.500000
v 128.926392 66.068054 -3.000000
v 130.153198 66.859604 -2.598083
v 131.379761 67.651085 0.000000
v 130.153198 66.859604 2.598083
v 128.926392 66.068054 3.000000
v 126.802002 64.697144 1.500000
v 126.473389 64.485062 0.000000
v 126.802002 64.697144 -1.500000
v 127.601440 67.212593 -3.000000
v 128.255371 68.527878 -2.598083
v 128.909180 69.843048 0.000000
v 128.255371 68.527878 2.598083
v 127.601440 67.212593 3.000000
v 126.469116 64.934662 1.500000
v 126.293823 64.582268 0.000000
v 126.469116 64.934662 -1.500000
v 125.812622 67.756050 -3.000000
v 125.957520 69.241776 -2.598083
v 126.102417 70.727402 0.000000
v 125.957520 69.241776 2.598083
v 125.812622 67.756050 3.000000
v 125.561646 65.182846 1.500000
v 125.522705 64.784775 0.000000
v 125.561646 65.182846 -1.500000
v 2.204620 0.000000 -1.272827
v -0.000031 0.000000 -2.545654
v -2.204620 0.000000 -1.272827
v -2.204620 0.000000 1.272827
v -0.000031 0.000000 2.545654
v 2.204620 0.000000 1.272827
v 2.204620 66.517815 -1.272827
v -0.000031 66.517815 -2.545654
v -2.204620 66.517815 -1.272827
v -2.204620 66.517815 1.272827
v -0.000031 66.517815 2.545654
v 2.204620 66.517815 1.272827
v 2.204620 0.000000 -1.272827
v -0.000031 0.000000 -2.545654
v -2.204620 0.000000 -1.272827
v -2.204620 0.000000 1.272827
v -0.000031 0.000000 2.545654
v 2.204620 0.000000 1.272827
v 2.204620 66.517815 -1.272827
v -0.000031 66.517815 -2.545654
v -2.204620 66.517815 -1.272827
v -2.204620 66.517815 1.272827
v -0.000031 66.517815 2.545654
v 2.204620 66.517815 1.272827
vt 0.181359 0.047215
vt 0.039762 0.047124
vt 0.039764 0.040035
vt 0.180904 0.039981
vt 0.039764 0.036489
vt 0.180698 0.036421
vt 0.039765 0.029398
vt 0.180518 0.029399
vt 0.039764 0.022307
vt 0.180698 0.022376
vt 0.039764 0.018762
vt 0.180904 0.018816
vt 0.039762 0.011672
vt 0.181359 0.011582
vt 0.039760 0.008127
vt 0.181438 0.007950
vt 0.039760 0.050669
vt 0.181438 0.050847
vt 0.196506 0.039746
vt 0.197097 0.036074
vt 0.201028 0.037190
vt 0.200970 0.041138
vt 0.197525 0.029398
vt 0.201087 0.029398
vt 0.197097 0.022723
vt 0.201028 0.021607
vt 0.196506 0.019051
vt 0.200970 0.017658
vt 0.194415 0.010835
vt 0.200813 0.009741
vt 0.193463 0.006338
vt 0.200791 0.005890
vt 0.193464 0.052458
vt 0.194416 0.047962
vt 0.200813 0.049054
vt 0.200791 0.052907
vt 0.184627 0.035405
vt 0.185216 0.038845
vt 0.184191 0.029399
vt 0.184626 0.023392
vt 0.185216 0.019952
vt 0.187259 0.011749
vt 0.187763 0.007206
vt 0.187260 0.047048
vt 0.187763 0.051591
vt 0.188767 0.034878
vt 0.188966 0.038302
vt 0.188623 0.029398
vt 0.188767 0.023919
vt 0.188966 0.020495
vt 0.189625 0.011781
vt 0.189587 0.007138
vt 0.189625 0.047016
vt 0.189588 0.051659
vt 0.192942 0.035151
vt 0.192557 0.038664
vt 0.193209 0.029398
vt 0.192942 0.023645
vt 0.192557 0.020133
vt 0.191012 0.011574
vt 0.190287 0.007006
vt 0.191013 0.047223
vt 0.190288 0.051791
vt 0.849434 0.039981
vt 0.990574 0.040035
vt 0.990576 0.047124
vt 0.848979 0.047215
vt 0.849640 0.036421
vt 0.990573 0.036489
vt 0.849820 0.029399
vt 0.990573 0.029398
vt 0.849640 0.022376
vt 0.990573 0.022307
vt 0.849434 0.018816
vt 0.990573 0.018762
vt 0.848979 0.011582
vt 0.990576 0.011672
vt 0.848900 0.007950
vt 0.990578 0.008127
vt 0.990578 0.050669
vt 0.848900 0.050847
vt 0.829368 0.041138
vt 0.833832 0.039746
vt 0.835922 0.047962
vt 0.829525 0.049055
vt 0.829309 0.037190
vt 0.833241 0.036074
vt 0.829250 0.029399
vt 0.832812 0.029398
vt 0.829309 0.021607
vt 0.833241 0.022723
vt 0.829368 0.017659
vt 0.833832 0.019051
vt 0.829526 0.009742
vt 0.835922 0.010835
vt 0.829548 0.005890
vt 0.836874 0.006338
vt 0.836874 0.052459
vt 0.829548 0.052907
vt 0.845121 0.038845
vt 0.843078 0.047048
vt 0.845711 0.035406
vt 0.846147 0.029399
vt 0.845711 0.023392
vt 0.845122 0.019952
vt 0.843078 0.011749
vt 0.842574 0.007206
vt 0.842574 0.051591
vt 0.841372 0.038302
vt 0.840712 0.047016
vt 0.841570 0.034878
vt 0.841714 0.029399
vt 0.841570 0.023919
vt 0.841372 0.020495
vt 0.840713 0.011781
vt 0.840750 0.007138
vt 0.840750 0.051659
vt 0.837781 0.038664
vt 0.839325 0.047223
vt 0.837396 0.035151
vt 0.837129 0.029398
vt 0.837396 0.023645
vt 0.837781 0.020133
vt 0.839325 0.011574
vt 0.840050 0.007006
vt 0.840050 0.051791
vt 0.264560 0.397699
vt 0.264560 0.407478
vt 0.017204 0.407478
vt 0.017204 0.397698
vt 0.264560 0.446598
vt 0.264560 0.456377
vt 0.017204 0.456377
vt 0.017204 0.446598
vt 0.264560 0.436818
vt 0.017204 0.436818
vt 0.264560 0.427037
vt 0.017204 0.427037
vt 0.264560 0.417258
vt 0.017204 0.417258
vt 0.264560 0.397699
vt 0.264560 0.407478
vt 0.017204 0.407478
vt 0.017204 0.397698
vt 0.264560 0.446598
vt 0.264560 0.456377
vt 0.017204 0.456377
vt 0.017204 0.446598
vt 0.264560 0.436818
vt 0.017204 0.436818
vt 0.264560 0.427037
vt 0.017204 0.427037
vt 0.264560 0.417258
vt 0.017204 0.417258
vn 0.706645 -0.001009 -0.707568
vn 0.500008 0.000000 -0.866021
vn 0.500008 0.000000 -0.866021
vn 0.257754 -0.000337 -0.966211
vn -0.258815 0.000000 -0.965927
vn -0.258815 0.000000 -0.965927
vn -0.707798 0.001742 -0.706412
vn -0.866026 0.000000 -0.499999
vn -0.866026 0.000000 -0.499999
vn -0.999997 0.002419 -0.000000
vn -0.866026 0.000000 0.499999
vn -0.866026 0.000000 0.499999
vn -0.707798 0.001742 0.706412
vn -0.258815 0.000000 0.965927
vn -0.258815 0.000000 0.965927
vn 0.257754 -0.000337 0.966211
vn 0.500008 0.000000 0.866021
vn 0.500008 0.000000 0.866021
vn 0.706645 -0.001009 0.707568
vn 0.965917 0.000000 0.258851
vn 0.965917 0.000000 0.258851
vn 0.999999 -0.001233 0.000000
vn 0.965917 0.000000 -0.258851
vn 0.965917 0.000000 -0.258851
vn 0.022010 -0.185560 -0.982386
vn -0.141161 0.729390 -0.669376
vn -0.000328 0.707240 -0.706973
vn 0.000074 -0.258608 -0.965982
vn -0.186173 0.982517 0.000000
vn -0.000459 1.000000 0.000000
vn -0.141161 0.729389 0.669376
vn -0.000328 0.707240 0.706973
vn 0.022011 -0.185560 0.982386
vn 0.000074 -0.258608 0.965982
vn 0.091031 -0.665700 0.740646
vn 0.000216 -0.707011 0.707202
vn 0.115491 -0.993309 0.000000
vn 0.000276 -1.000000 0.000000
vn 0.091030 -0.665700 -0.740646
vn 0.000216 -0.707011 -0.707202
vn -0.728332 0.184204 -0.660001
vn 0.163571 -0.022131 -0.986283
vn -0.971114 0.238617 -0.000000
vn -0.728332 0.184204 0.660001
vn 0.163571 -0.022131 0.986283
vn 0.649108 -0.111547 0.752473
vn 0.990948 -0.134249 0.000000
vn 0.649108 -0.111547 -0.752473
vn -0.625973 0.451522 -0.635835
vn 0.072212 -0.045635 -0.996345
vn -0.814069 0.580769 -0.000000
vn -0.625973 0.451523 0.635834
vn 0.072213 -0.045635 0.996345
vn 0.485869 -0.341113 0.804720
vn 0.831753 -0.555146 0.000000
vn 0.485869 -0.341113 -0.804720
vn -0.383607 0.664443 -0.641375
vn 0.040282 -0.100750 -0.994096
vn -0.495966 0.868342 -0.000000
vn -0.383608 0.664443 0.641374
vn 0.040283 -0.100751 0.994096
vn 0.256027 -0.563335 0.785560
vn 0.335912 -0.941893 0.000000
vn 0.256027 -0.563335 -0.785560
vn -0.257754 -0.000337 -0.966211
vn -0.500008 0.000000 -0.866021
vn -0.500008 0.000000 -0.866021
vn -0.706645 -0.001009 -0.707568
vn 0.258815 0.000000 -0.965927
vn 0.707798 0.001742 -0.706412
vn 0.258815 0.000000 -0.965927
vn 0.999997 0.002419 0.000000
vn 0.866026 0.000000 -0.499999
vn 0.866026 0.000000 -0.499999
vn 0.707798 0.001742 0.706412
vn 0.866026 0.000000 0.499999
vn 0.866026 0.000000 0.499999
vn 0.258815 0.000000 0.965927
vn -0.257754 -0.000337 0.966211
vn 0.258815 0.000000 0.965927
vn -0.706645 -0.001009 0.707568
vn -0.500008 0.000000 0.866021
vn -0.500008 0.000000 0.866021
vn -0.965917 0.000000 0.258851
vn -0.999999 -0.001233 0.000000
vn -0.965917 0.000000 0.258851
vn -0.965917 0.000000 -0.258851
vn -0.965917 0.000000 -0.258851
vn -0.000074 -0.258608 -0.965982
vn -0.022010 -0.185560 -0.982386
vn -0.091031 -0.665700 -0.740646
vn -0.000216 -0.707011 -0.707202
vn 0.000328 0.707240 -0.706973
vn 0.141161 0.729389 -0.669377
vn 0.000459 1.000000 0.000000
vn 0.186173 0.982517 0.000000
vn 0.000328 0.707240 0.706973
vn 0.141161 0.729389 0.669376
vn -0.000074 -0.258608 0.965982
vn -0.022011 -0.185560 0.982386
vn -0.000216 -0.707011 0.707202
vn -0.091031 -0.665700 0.740646
vn -0.000276 -1.000000 0.000000
vn -0.115491 -0.993309 0.000000
vn -0.163571 -0.022131 -0.986283
vn -0.649108 -0.111547 -0.752473
vn 0.728332 0.184204 -0.660001
vn 0.971114 0.238617 0.000000
vn 0.728332 0.184204 0.660001
vn -0.163572 -0.022131 0.986283
vn -0.649108 -0.111547 0.752473
vn -0.990948 -0.134249 -0.000000
vn -0.072212 -0.045635 -0.996345
vn -0.485869 -0.341113 -0.804720
vn 0.625973 0.451522 -0.635835
vn 0.814069 0.580769 -0.000000
vn 0.625973 0.451523 0.635834
vn -0.072212 -0.045635 0.996345
vn -0.485869 -0.341113 0.804720
vn -0.831753 -0.555146 -0.000001
vn -0.040282 -0.100750 -0.994096
vn -0.256027 -0.563335 -0.785560
vn 0.383607 0.664442 -0.641375
vn 0.495966 0.868342 -0.000000
vn 0.383608 0.664443 0.641374
vn -0.040283 -0.100751 0.994096
vn -0.256027 -0.563335 0.785560
vn -0.335912 -0.941893 -0.000001
vn 0.499992 0.000000 -0.866030
vn 0.499992 0.000000 -0.866030
vn 0.499992 0.000000 -0.866030
vn 0.499992 0.000000 -0.866030
vn -0.500002 0.000000 -0.866024
vn -0.500002 0.000000 -0.866024
vn -0.500002 0.000000 -0.866024
vn -0.500002 0.000000 -0.866024
vn -1.000000 0.000000 0.000000
vn -1.000000 0.000000 0.000000
vn -1.000000 0.000000 0.000000
vn -1.000000 0.000000 0.000000
vn -0.500002 0.000000 0.866024
vn -0.500002 0.000000 0.866024
vn -0.500002 0.000000 0.866024
vn -0.500002 0.000000 0.866024
vn 0.499992 0.000000 0.866030
vn 0.499992 0.000000 0.866030
vn 0.499992 0.000000 0.866030
vn 0.499992 0.000000 0.866030
vn 1.000000 0.000000 0.000000
vn 1.000000 0.000000 0.000000
vn 1.000000 0.000000 0.000000
vn 1.000000 0.000000 0.000000
vn 0.499992 0.000000 -0.866030
vn 0.499992 0.000000 -0.866030
vn 0.499992 0.000000 -0.866030
vn 0.499992 0.000000 -0.866030
vn -0.500002 0.000000 -0.866024
vn -0.500002 0.000000 -0.866024
vn -0.500002 0.000000 -0.866024
vn -0.500002 0.000000 -0.866024
vn -1.000000 0.000000 0.000000
vn -1.000000 0.000000 0.000000
vn -1.000000 0.000000 0.000000
vn -1.000000 0.000000 0.000000
vn -0.500002 0.000000 0.866024
vn -0.500002 0.000000 0.866024
vn -0.500002 0.000000 0.866024
vn -0.500002 0.000000 0.866024
vn 0.499992 0.000000 0.866030
vn 0.499992 0.000000 0.866030
vn 0.499992 0.000000 0.866030
vn 0.499992 0.000000 0.866030
vn 1.000000 0.000000 0.000000
vn 1.000000 0.000000 0.000000
vn 1.000000 0.000000 0.000000
vn 1.000000 0.000000 0.000000
f 9/1/1 1/2/2 2/3/3 10/4/4
f 2/3/5 3/5/6 11/6/7 10/4/4
f 11/6/7 3/5/8 4/7/9 12/8/10
f 12/8/10 4/7/11 5/9/12 13/10/13
f 5/9/14 6/11/15 14/12/16 13/10/13
f 14/12/16 6/11/17 7/13/18 15/14/19
f 7/13/20 8/15/21 16/16/22 15/14/19
f 8/17/23 1/2/24 9/1/1 16/18/22
f 49/19/25 50/20/26 17/21/27 18/22/28
f 17/21/27 50/20/26 51/23/29 24/24/30
f 24/24/30 51/23/29 52/25/31 23/26/32
f 52/25/31 53/27/33 22/28/34 23/26/32
f 22/28/34 53/27/33 54/29/35 21/30/36
f 54/29/35 55/31/37 20/32/38 21/30/36
f 55/33/37 56/34/39 19/35/40 20/36/38
f 19/35/40 56/34/39 49/19/25 18/22/28
f 10/4/4 11/6/7 26/37/41 25/38/42
f 26/37/41 11/6/7 12/8/10 27/39/43
f 27/39/43 12/8/10 13/10/13 28/40/44
f 13/10/13 14/12/16 29/41/45 28/40/44
f 29/41/45 14/12/16 15/14/19 30/42/46
f 15/14/19 16/16/22 31/43/47 30/42/46
f 16/18/22 9/1/1 32/44/48 31/45/47
f 25/38/42 32/44/48 9/1/1 10/4/4
f 25/38/42 26/37/41 34/46/49 33/47/50
f 34/46/49 26/37/41 27/39/43 35/48/51
f 35/48/51 27/39/43 28/40/44 36/49/52
f 28/40/44 29/41/45 37/50/53 36/49/52
f 37/50/53 29/41/45 30/42/46 38/51/54
f 30/42/46 31/43/47 39/52/55 38/51/54
f 31/45/47 32/44/48 40/53/56 39/54/55
f 33/47/50 40/53/56 32/44/48 25/38/42
f 33/47/50 34/46/49 42/55/57 41/56/58
f 42/55/57 34/46/49 35/48/51 43/57/59
f 43/57/59 35/48/51 36/49/52 44/58/60
f 36/49/52 37/50/53 45/59/61 44/58/60
f 45/59/61 37/50/53 38/51/54 46/60/62
f 38/51/54 39/52/55 47/61/63 46/60/62
f 39/54/55 40/53/56 48/62/64 47/63/63
f 41/56/58 48/62/64 40/53/56 33/47/50
f 41/56/58 42/55/57 50/20/26 49/19/25
f 50/20/26 42/55/57 43/57/59 51/23/29
f 51/23/29 43/57/59 44/58/60 52/25/31
f 44/58/60 45/59/61 53/27/33 52/25/31
f 53/27/33 45/59/61 46/60/62 54/29/35
f 46/60/62 47/61/63 55/31/37 54/29/35
f 47/63/63 48/62/64 56/34/39 55/33/37
f 49/19/25 56/34/39 48/62/64 41/56/58
f 66/64/65 58/65/66 57/66/67 65/67/68
f 58/65/69 66/64/65 67/68/70 59/69/71
f 68/70/72 60/71/73 59/69/74 67/68/70
f 69/72/75 61/73/76 60/71/77 68/70/72
f 61/73/78 69/72/75 70/74/79 62/75/80
f 71/76/81 63/77/82 62/75/83 70/74/79
f 63/77/84 71/76/81 72/78/85 64/79/86
f 64/80/87 72/81/85 65/67/68 57/66/88
f 74/82/89 105/83/90 112/84/91 75/85/92
f 105/83/90 74/82/89 73/86/93 106/87/94
f 80/88/95 107/89/96 106/87/94 73/86/93
f 79/90/97 108/91/98 107/89/96 80/88/95
f 108/91/98 79/90/97 78/92/99 109/93/100
f 77/94/101 110/95/102 109/93/100 78/92/99
f 110/95/102 77/94/101 76/96/103 111/97/104
f 111/98/104 76/99/103 75/85/92 112/84/91
f 81/100/105 66/64/65 65/67/68 88/101/106
f 66/64/65 81/100/105 82/102/107 67/68/70
f 82/102/107 83/103/108 68/70/72 67/68/70
f 83/103/108 84/104/109 69/72/75 68/70/72
f 69/72/75 84/104/109 85/105/110 70/74/79
f 85/105/110 86/106/111 71/76/81 70/74/79
f 71/76/81 86/106/111 87/107/112 72/78/85
f 72/81/85 87/108/112 88/101/106 65/67/68
f 89/109/113 81/100/105 88/101/106 96/110/114
f 81/100/105 89/109/113 90/111/115 82/102/107
f 90/111/115 91/112/116 83/103/108 82/102/107
f 91/112/116 92/113/117 84/104/109 83/103/108
f 84/104/109 92/113/117 93/114/118 85/105/110
f 93/114/118 94/115/119 86/106/111 85/105/110
f 86/106/111 94/115/119 95/116/120 87/107/112
f 87/108/112 95/117/120 96/110/114 88/101/106
f 97/118/121 89/109/113 96/110/114 104/119/122
f 89/109/113 97/118/121 98/120/123 90/111/115
f 98/120/123 99/121/124 91/112/116 90/111/115
f 99/121/124 100/122/125 92/113/117 91/112/116
f 92/113/117 100/122/125 101/123/126 93/114/118
f 101/123/126 102/124/127 94/115/119 93/114/118
f 94/115/119 102/124/127 103/125/128 95/116/120
f 95/117/120 103/126/128 104/119/122 96/110/114
f 105/83/90 97/118/121 104/119/122 112/84/91
f 97/118/121 105/83/90 106/87/94 98/120/123
f 106/87/94 107/89/96 99/121/124 98/120/123
f 107/89/96 108/91/98 100/122/125 99/121/124
f 100/122/125 108/91/98 109/93/100 101/123/126
f 109/93/100 110/95/102 102/124/127 101/123/126
f 102/124/127 110/95/102 111/97/104 103/125/128
f 103/126/128 111/98/104 112/84/91 104/119/122
f 80/88/95 73/86/93 17/21/27 24/24/30
f 79/90/97 80/88/95 24/24/30 23/26/32
f 78/92/99 79/90/97 23/26/32 22/28/34
f 77/94/101 78/92/99 22/28/34 21/30/36
f 76/96/103 77/94/101 21/30/36 20/32/38
f 75/85/92 76/99/103 20/36/38 19/35/40
f 74/82/89 75/85/92 19/35/40 18/22/28
f 17/21/27 73/86/93 74/82/89 18/22/28
f 120/127/129 119/128/130 113/129/131 114/130/132
f 121/131/133 120/132/134 114/133/135 115/134/136
f 122/135/137 121/131/138 115/134/139 116/136/140
f 123/137/141 122/135/142 116/136/143 117/138/144
f 124/139/145 123/137/146 117/138/147 118/140/148
f 119/128/149 124/139/150 118/140/151 113/129/152
f 132/141/153 131/142/154 125/143/155 126/144/156
f 133/145/157 132/146/158 126/147/159 127/148/160
f 134/149/161 133/145/162 127/148/163 128/150/164
f 135/151/165 134/149/166 128/150/167 129/152/168
f 136/153/169 135/151/170 129/152/171 130/154/172
f 131/142/173 136/153/174 130/154/175 125/143/176
