# This file uses meters as units for non-parametric coordinates.

v -51.500000 69.351212 45.901917
v -51.500000 67.851212 45.500000
v -51.500000 65.253136 47.000000
v -51.500000 64.851212 48.500000
v -51.500000 65.253136 50.000000
v -51.500000 67.851212 51.500000
v -51.500000 69.351212 51.098083
v -51.500000 70.851212 48.500000
v 45.901917 69.351212 -51.500000
v 45.500000 67.851212 -51.500000
v 47.000000 65.253136 -51.500000
v 48.500000 64.851212 -51.500000
v 50.000000 65.253136 -51.500000
v 51.500000 67.851212 -51.500000
v 51.098083 69.351212 -51.500000
v 48.500000 70.851212 -51.500000
v -22.567169 69.351212 44.754349
v -22.375290 70.851212 47.337650
v -22.183411 69.351212 49.920952
v -22.153717 67.851212 50.320583
v -22.264511 65.253136 48.829117
v -22.375290 64.851212 47.337650
v -22.486069 65.253136 45.846180
v -22.596848 67.851212 44.354717
v 3.503754 69.351212 38.206665
v 4.406509 70.851212 40.606918
v 5.309280 69.351212 43.007179
v 5.448944 67.851212 43.378490
v 4.927719 65.253136 41.992706
v 4.406509 64.851212 40.606918
v 3.885300 65.253136 39.221127
v 3.364090 67.851212 37.835346
v 24.319824 69.351212 24.319815
v 26.121368 70.851212 26.121357
v 27.922913 69.351212 27.922909
v 28.201614 67.851212 28.201599
v 27.161484 65.253136 27.161482
v 26.121368 64.851212 26.121357
v 25.081223 65.253136 25.081234
v 24.041122 67.851212 24.041115
v 38.206665 69.351212 3.503750
v 40.606918 70.851212 4.406506
v 43.007187 69.351212 5.309265
v 43.378494 67.851212 5.448917
v 41.992706 65.253136 4.927715
v 40.606918 64.851212 4.406506
v 39.221130 65.253136 3.885296
v 37.835358 67.851212 3.364090
v 44.754349 69.351212 -22.567169
v 47.337646 70.851212 -22.375290
v 49.920959 69.351212 -22.183411
v 50.320587 67.851212 -22.153725
v 48.829117 65.253136 -22.264496
v 47.337646 64.851212 -22.375290
v 45.846176 65.253136 -22.486069
v 44.354721 67.851212 -22.596848
v 27.704651 0.000000 24.227173
v 25.500000 0.000000 22.954346
v 23.295410 0.000000 24.227173
v 23.295410 0.000000 26.772827
v 25.500000 0.000000 28.045654
v 27.704651 0.000000 26.772827
v 27.704651 67.543846 24.227173
v 25.500000 67.543846 22.954346
v 23.295410 67.543846 24.227173
v 23.295410 67.543846 26.772827
v 25.500000 67.543846 28.045654
v 27.704651 67.543846 26.772827
vt 0.829250 0.029399
vt 0.829309 0.037190
vt 0.829309 0.021607
vt 0.829368 0.017659
vt 0.829526 0.009742
vt 0.829548 0.005890
vt 0.829525 0.049055
vt 0.829548 0.052907
vt 0.829368 0.041138
vt 0.201028 0.037190
vt 0.201087 0.029398
vt 0.201028 0.021607
vt 0.200970 0.017658
vt 0.200813 0.009741
vt 0.200791 0.005890
vt 0.200791 0.052907
vt 0.200813 0.049054
vt 0.200970 0.041138
vt 0.305742 0.037190
vt 0.305781 0.029398
vt 0.305741 0.021607
vt 0.305703 0.017658
vt 0.305598 0.009741
vt 0.305583 0.005890
vt 0.305584 0.052907
vt 0.305598 0.049054
vt 0.305703 0.041138
vt 0.724556 0.029398
vt 0.724595 0.037190
vt 0.724595 0.021607
vt 0.724635 0.017659
vt 0.724740 0.009742
vt 0.724755 0.005890
vt 0.724740 0.049055
vt 0.724755 0.052907
vt 0.724635 0.041138
vt 0.619862 0.029398
vt 0.619882 0.037190
vt 0.619882 0.021607
vt 0.619902 0.017658
vt 0.619955 0.009742
vt 0.619962 0.005890
vt 0.619954 0.049055
vt 0.619962 0.052907
vt 0.619902 0.041138
vt 0.515169 0.029398
vt 0.515168 0.037190
vt 0.515168 0.021607
vt 0.515169 0.017658
vt 0.515169 0.009742
vt 0.515169 0.005890
vt 0.515169 0.049055
vt 0.515169 0.052907
vt 0.515169 0.041138
vt 0.410475 0.029398
vt 0.410455 0.037190
vt 0.410455 0.021607
vt 0.410436 0.017658
vt 0.410384 0.009742
vt 0.410376 0.005890
vt 0.410384 0.049054
vt 0.410376 0.052907
vt 0.410436 0.041138
vt 0.264560 0.397699
vt 0.264560 0.407478
vt 0.017204 0.407478
vt 0.017204 0.397698
vt 0.264560 0.446598
vt 0.264560 0.456377
vt 0.017204 0.456377
vt 0.017204 0.446598
vt 0.264560 0.436818
vt 0.017204 0.436818
vt 0.264560 0.427037
vt 0.017204 0.427037
vt 0.264560 0.417258
vt 0.017204 0.417258
vn -0.496759 0.864922 -0.071696
vn -0.497084 0.865053 -0.067762
vn -0.500417 0.865556 -0.019910
vn -0.500417 0.865556 -0.019910
vn 0.496701 0.864904 0.072319
vn 0.497029 0.865036 0.068372
vn 0.500411 0.865556 0.020032
vn 0.500411 0.865556 0.020032
vn 0.956428 0.257604 0.137428
vn 0.956734 0.257648 0.135191
vn 0.965289 0.258291 0.038777
vn 0.965289 0.258291 0.038777
vn 0.858687 -0.498228 0.120109
vn 0.858209 -0.498096 0.124003
vn 0.865798 -0.499187 0.034736
vn 0.865798 -0.499187 0.034736
vn 0.257512 -0.965633 0.035221
vn 0.257354 -0.965589 0.037511
vn 0.259136 -0.965785 0.010360
vn 0.259136 -0.965785 0.010360
vn -0.257526 -0.965636 -0.035038
vn -0.257369 -0.965592 -0.037324
vn -0.259137 -0.965785 -0.010324
vn -0.259137 -0.965785 -0.010324
vn -0.858910 -0.498280 -0.118280
vn -0.858442 -0.498152 -0.122155
vn -0.865813 -0.499186 -0.034370
vn -0.865813 -0.499186 -0.034370
vn -0.956779 0.257650 -0.134875
vn -0.957078 0.257692 -0.132651
vn -0.965309 0.258292 -0.038268
vn -0.965309 0.258292 -0.038268
vn -0.019910 0.865556 -0.500417
vn -0.019910 0.865556 -0.500417
vn -0.067761 0.865053 -0.497084
vn -0.071696 0.864922 -0.496758
vn 0.020032 0.865556 0.500411
vn 0.020032 0.865556 0.500411
vn 0.068372 0.865036 0.497030
vn 0.072319 0.864903 0.496702
vn 0.038777 0.258293 0.965288
vn 0.038777 0.258293 0.965288
vn 0.135191 0.257651 0.956734
vn 0.137428 0.257607 0.956427
vn 0.034736 -0.499187 0.865798
vn 0.034736 -0.499187 0.865798
vn 0.124003 -0.498096 0.858210
vn 0.120109 -0.498228 0.858687
vn 0.010360 -0.965786 0.259135
vn 0.010360 -0.965786 0.259135
vn 0.037511 -0.965589 0.257355
vn 0.035221 -0.965633 0.257513
vn -0.010324 -0.965785 -0.259138
vn -0.010324 -0.965785 -0.259138
vn -0.037324 -0.965592 -0.257369
vn -0.035038 -0.965636 -0.257526
vn -0.034370 -0.499187 -0.865812
vn -0.034370 -0.499187 -0.865812
vn -0.122155 -0.498153 -0.858441
vn -0.118280 -0.498281 -0.858910
vn -0.038269 0.258292 -0.965309
vn -0.038269 0.258292 -0.965309
vn -0.132651 0.257695 -0.957077
vn -0.134875 0.257653 -0.956778
vn -0.199354 0.863061 -0.464095
vn -0.204515 0.862931 -0.462085
vn 0.199985 0.863044 0.463854
vn 0.205151 0.862912 0.461840
vn 0.387287 0.255471 0.885857
vn 0.390115 0.255428 0.884628
vn 0.351559 -0.494696 0.794784
vn 0.346590 -0.494825 0.796883
vn 0.106541 -0.964990 0.239673
vn 0.103516 -0.965035 0.240817
vn -0.106349 -0.964994 -0.239741
vn -0.103325 -0.965038 -0.240884
vn -0.349693 -0.494753 -0.795572
vn -0.344728 -0.494876 -0.797659
vn -0.384718 0.255517 -0.886963
vn -0.387544 0.255476 -0.885744
vn -0.358789 0.861708 -0.358789
vn -0.358789 0.861708 -0.358789
vn 0.358787 0.861710 0.358787
vn 0.358787 0.861710 0.358786
vn 0.683899 0.254097 0.683898
vn 0.683898 0.254097 0.683899
vn 0.615350 -0.492635 0.615350
vn 0.615350 -0.492635 0.615349
vn 0.186402 -0.964629 0.186402
vn 0.186402 -0.964629 0.186402
vn -0.186401 -0.964629 -0.186401
vn -0.186402 -0.964629 -0.186401
vn -0.615353 -0.492628 -0.615352
vn -0.615353 -0.492628 -0.615353
vn -0.683898 0.254098 -0.683899
vn -0.683898 0.254098 -0.683899
vn -0.464095 0.863061 -0.199354
vn -0.462085 0.862931 -0.204515
vn 0.463854 0.863044 0.199985
vn 0.461840 0.862912 0.205151
vn 0.885858 0.255468 0.387287
vn 0.884628 0.255425 0.390117
vn 0.794784 -0.494696 0.351560
vn 0.796884 -0.494825 0.346590
vn 0.239672 -0.964990 0.106541
vn 0.240815 -0.965035 0.103515
vn -0.239742 -0.964994 -0.106348
vn -0.240885 -0.965038 -0.103325
vn -0.795573 -0.494752 -0.349693
vn -0.797660 -0.494875 -0.344729
vn -0.886964 0.255512 -0.384719
vn -0.885745 0.255472 -0.387545
vn 0.499992 0.000000 -0.866030
vn 0.499992 0.000000 -0.866030
vn 0.499992 0.000000 -0.866030
vn 0.499992 0.000000 -0.866030
vn -0.500002 0.000000 -0.866024
vn -0.500002 0.000000 -0.866024
vn -0.500002 0.000000 -0.866024
vn -0.500002 0.000000 -0.866024
vn -1.000000 0.000000 0.000000
vn -1.000000 0.000000 0.000000
vn -1.000000 0.000000 0.000000
vn -1.000000 0.000000 0.000000
vn -0.500002 0.000000 0.866024
vn -0.500002 0.000000 0.866024
vn -0.500002 0.000000 0.866024
vn -0.500002 0.000000 0.866024
vn 0.499992 0.000000 0.866030
vn 0.499992 0.000000 0.866030
vn 0.499992 0.000000 0.866030
vn 0.499992 0.000000 0.866030
vn 1.000000 0.000000 0.000000
vn 1.000000 0.000000 0.000000
vn 1.000000 0.000000 0.000000
vn 1.000000 0.000000 0.000000
f 49/19/1 50/20/2 16/11/3 9/10/4
f 50/20/5 51/21/6 15/12/7 16/11/8
f 51/21/9 52/22/10 14/13/11 15/12/12
f 52/22/13 53/23/14 13/14/15 14/13/16
f 53/23/17 54/24/18 12/15/19 13/14/20
f 54/25/21 55/26/22 11/17/23 12/16/24
f 55/26/25 56/27/26 10/18/27 11/17/28
f 56/27/29 49/19/30 9/10/31 10/18/32
f 1/2/33 8/1/34 18/28/35 17/29/36
f 8/1/37 7/3/38 19/30/39 18/28/40
f 7/3/41 6/4/42 20/31/43 19/30/44
f 6/4/45 5/5/46 21/32/47 20/31/48
f 5/5/49 4/6/50 22/33/51 21/32/52
f 4/8/53 3/7/54 23/34/55 22/35/56
f 3/7/57 2/9/58 24/36/59 23/34/60
f 2/9/61 1/2/62 17/29/63 24/36/64
f 17/29/36 18/28/35 26/37/65 25/38/66
f 18/28/40 19/30/39 27/39/67 26/37/68
f 19/30/44 20/31/43 28/40/69 27/39/70
f 20/31/48 21/32/47 29/41/71 28/40/72
f 21/32/52 22/33/51 30/42/73 29/41/74
f 22/35/56 23/34/55 31/43/75 30/44/76
f 23/34/60 24/36/59 32/45/77 31/43/78
f 24/36/64 17/29/63 25/38/79 32/45/80
f 25/38/66 26/37/65 34/46/81 33/47/82
f 26/37/68 27/39/67 35/48/83 34/46/84
f 27/39/70 28/40/69 36/49/85 35/48/86
f 28/40/72 29/41/71 37/50/87 36/49/88
f 29/41/74 30/42/73 38/51/89 37/50/90
f 30/44/76 31/43/75 39/52/91 38/53/92
f 31/43/78 32/45/77 40/54/93 39/52/94
f 32/45/80 25/38/79 33/47/95 40/54/96
f 33/47/82 34/46/81 42/55/97 41/56/98
f 34/46/84 35/48/83 43/57/99 42/55/100
f 35/48/86 36/49/85 44/58/101 43/57/102
f 36/49/88 37/50/87 45/59/103 44/58/104
f 37/50/90 38/51/89 46/60/105 45/59/106
f 38/53/92 39/52/91 47/61/107 46/62/108
f 39/52/94 40/54/93 48/63/109 47/61/110
f 40/54/96 33/47/95 41/56/111 48/63/112
f 41/56/98 42/55/97 50/20/2 49/19/1
f 42/55/100 43/57/99 51/21/6 50/20/5
f 43/57/102 44/58/101 52/22/10 51/21/9
f 44/58/104 45/59/103 53/23/14 52/22/13
f 45/59/106 46/60/105 54/24/18 53/23/17
f 46/62/108 47/61/107 55/26/22 54/25/21
f 47/61/110 48/63/109 56/27/26 55/26/25
f 48/63/112 41/56/111 49/19/30 56/27/29
f 64/64/113 63/65/114 57/66/115 58/67/116
f 65/68/117 64/69/118 58/70/119 59/71/120
f 66/72/121 65/68/122 59/71/123 60/73/124
f 67/74/125 66/72/126 60/73/127 61/75/128
f 68/76/129 67/74/130 61/75/131 62/77/132
f 63/65/133 68/76/134 62/77/135 57/66/136
