# This file uses meters as units for non-parametric coordinates.

v -977.742737 400.000000 -646.584595
v 222.257263 0.000000 -646.584595
v 622.257263 400.000000 953.415405
v 622.257263 0.000000 -246.584595
v -962.705688 400.000000 -311.024780
v 230.467163 0.000000 -399.650146
v -853.126587 400.000000 120.963409
v 242.393921 0.000000 -330.241516
v -570.005310 400.000000 545.677979
v 262.092590 0.000000 -286.419922
v -145.290741 400.000000 828.799316
v 306.632629 0.000000 -266.002808
v 286.697449 400.000000 938.378357
v 375.322815 0.000000 -254.794495
v 622.257263 172.912338 653.415405
v 308.853790 172.912338 640.085144
v -32.309898 172.912338 555.098755
v -361.980835 172.912338 337.653503
v -579.246460 172.912338 8.162178
v -664.412476 172.912338 -333.181122
v -677.742737 172.912338 -646.584595
v 622.257263 41.132385 353.415344
v 331.010132 41.132385 341.791870
v 80.670944 41.132385 281.398224
v -153.956345 41.132385 129.629013
v -305.366302 41.132385 -104.639053
v -366.119232 41.132385 -355.337463
v -377.742706 41.132385 -646.584595
v 622.257263 7.797554 53.415375
v 353.166473 7.797554 43.498688
v 193.651794 7.797554 7.697708
v 54.068123 7.797554 -78.395454
v -31.486191 7.797554 -217.440277
v -67.826035 7.797554 -377.493805
v -77.742722 7.797554 -646.584595
v 622.257263 272.097046 803.415405
v 297.775635 272.097046 789.231750
v -88.800323 272.097046 691.949036
v -465.993073 272.097046 441.665741
v -716.186523 272.097046 64.562790
v -813.559082 272.097046 -322.102966
v -827.742737 272.097046 -646.584595
v 622.257263 97.035423 503.415375
v 319.931946 97.035423 490.938507
v 24.180523 97.035423 418.248474
v -257.968597 97.035423 233.641266
v -442.306396 97.035423 -48.238438
v -515.265869 97.035423 -344.259277
v -527.742737 97.035423 -646.584595
v -977.742737 0.000000 -646.584595
v -962.705688 0.000000 -311.024780
v -853.126587 0.000000 120.963409
v -570.005310 0.000000 545.677979
v -145.290741 0.000000 828.799316
v 286.697449 0.000000 938.378357
v 622.257263 0.000000 953.415405
v 622.257263 0.000000 803.415405
v -827.742737 0.000000 -646.584595
v 622.257263 0.000000 653.415405
v 622.257263 0.000000 503.415375
v -677.742737 0.000000 -646.584595
v -527.742737 0.000000 -646.584595
v 622.257263 0.000000 353.415344
v 622.257263 0.000000 53.415375
v -377.742706 0.000000 -646.584595
v -77.742722 0.000000 -646.584595
vt 0.000000 0.000000
vt 1.000000 0.000000
vt 0.000000 0.000000
vt 1.000000 0.000000
vt 0.000000 0.000000
vt 1.000000 0.000000
vt 0.000000 0.000000
vt 1.000000 0.000000
vt 0.000000 0.000000
vt 1.000000 0.000000
vt 0.000000 0.000000
vt 1.000000 0.000000
vt 0.000000 0.000000
vt 1.000000 0.000000
vt 0.000000 0.000000
vt 1.000000 0.000000
vt 0.000000 0.000000
vt 1.000000 0.000000
vt 0.000000 0.000000
vt 1.000000 0.000000
vt 0.000000 0.000000
vt 1.000000 0.000000
vt 0.000000 0.000000
vt 1.000000 0.000000
vt 0.250000 0.000000
vt 0.250000 0.000000
vt 0.750000 0.000000
vt 0.250000 0.000000
vt 0.750000 0.000000
vt 0.250000 0.000000
vt 0.750000 0.000000
vt 0.250000 0.000000
vt 0.750000 0.000000
vt 0.250000 0.000000
vt 0.750000 0.000000
vt 0.750000 0.000000
vt 0.500000 0.000000
vt 0.500000 0.000000
vt 0.500000 0.000000
vt 0.500000 0.000000
vt 0.500000 0.000000
vt 0.500000 0.000000
vt 0.500000 0.000000
vt 0.500000 0.000000
vt 0.500000 0.000000
vt 0.500000 0.000000
vt 0.500000 0.000000
vt 0.500000 0.000000
vt 0.750000 0.000000
vt 0.750000 0.000000
vt 0.250000 0.000000
vt 0.750000 0.000000
vt 0.250000 0.000000
vt 0.750000 0.000000
vt 0.250000 0.000000
vt 0.750000 0.000000
vt 0.250000 0.000000
vt 0.750000 0.000000
vt 0.250000 0.000000
vt 0.250000 0.000000
vt 0.125000 0.000000
vt 0.125000 0.000000
vt 0.875000 0.000000
vt 0.125000 0.000000
vt 0.875000 0.000000
vt 0.125000 0.000000
vt 0.875000 0.000000
vt 0.125000 0.000000
vt 0.875000 0.000000
vt 0.125000 0.000000
vt 0.875000 0.000000
vt 0.875000 0.000000
vt 0.375000 0.000000
vt 0.375000 0.000000
vt 0.625000 0.000000
vt 0.375000 0.000000
vt 0.625000 0.000000
vt 0.375000 0.000000
vt 0.625000 0.000000
vt 0.375000 0.000000
vt 0.625000 0.000000
vt 0.375000 0.000000
vt 0.625000 0.000000
vt 0.625000 0.000000
vt 0.000000 0.000000
vt 1.000000 0.000000
vt 1.000000 1.000000
vt 0.000000 1.000000
vt 0.000000 0.000000
vt 1.000000 0.000000
vt 1.000000 1.000000
vt 0.000000 1.000000
vt 0.000000 0.000000
vt 1.000000 0.000000
vt 1.000000 1.000000
vt 0.000000 1.000000
vt 0.000000 0.000000
vt 1.000000 0.000000
vt 1.000000 1.000000
vt 0.000000 1.000000
vt 0.000000 0.000000
vt 1.000000 0.000000
vt 1.000000 1.000000
vt 0.000000 1.000000
vt 0.000000 0.000000
vt 1.000000 0.000000
vt 1.000000 1.000000
vt 0.000000 1.000000
vt 0.000000 0.000000
vt 1.000000 0.000000
vt 1.000000 1.000000
vt 0.000000 1.000000
vt 0.000000 0.000000
vt 1.000000 0.000000
vt 1.000000 1.000000
vt 0.000000 1.000000
vt 0.000000 0.000000
vt 1.000000 0.000000
vt 1.000000 1.000000
vt 0.000000 1.000000
vt 0.000000 0.000000
vt 1.000000 0.000000
vt 1.000000 1.000000
vt 0.000000 1.000000
vt 0.000000 0.000000
vt 1.000000 0.000000
vt 1.000000 1.000000
vt 0.000000 1.000000
vt 0.000000 0.000000
vt 1.000000 0.000000
vt 1.000000 1.000000
vt 0.000000 1.000000
vt 0.000000 0.000000
vt 1.000000 0.000000
vt 1.000000 1.000000
vt 0.000000 1.000000
vt 0.000000 0.000000
vt 1.000000 0.000000
vt 1.000000 1.000000
vt 0.000000 1.000000
vt 0.000000 0.000000
vt 1.000000 0.000000
vt 1.000000 1.000000
vt 0.000000 1.000000
vt 0.000000 0.000000
vt 1.000000 0.000000
vt 1.000000 1.000000
vt 0.000000 1.000000
vt 0.000000 0.000000
vt 1.000000 0.000000
vt 0.500000 1.000000
vt 0.000000 0.000000
vt 1.000000 0.000000
vt 0.500000 1.000000
vn 0.649021 0.760228 -0.028733
vn 0.643674 0.758691 -0.100356
vn 0.603398 0.791733 -0.095234
vn 0.605703 0.795248 -0.026527
vn 0.595637 0.756395 -0.270339
vn 0.560575 0.787696 -0.255521
vn 0.463028 0.755784 -0.463028
vn 0.436595 0.786620 -0.436594
vn 0.270404 0.756348 -0.595667
vn 0.255536 0.787656 -0.560625
vn 0.100332 0.758652 -0.643725
vn 0.095186 0.791695 -0.603456
vn 0.028733 0.760228 -0.649021
vn 0.026527 0.795248 -0.605704
vn 0.076598 0.859211 -0.505855
vn 0.021588 0.862020 -0.506415
vn 0.016749 0.914285 -0.404726
vn 0.058395 0.912199 -0.405564
vn 0.213058 0.855682 -0.471609
vn 0.169663 0.909285 -0.380019
vn 0.366874 0.854873 -0.366873
vn 0.295214 0.908679 -0.295213
vn 0.471562 0.855711 -0.213045
vn 0.379978 0.909304 -0.169654
vn 0.505792 0.859239 -0.076700
vn 0.405502 0.912218 -0.058536
vn 0.506415 0.862020 -0.021588
vn 0.404726 0.914285 -0.016749
vn 0.028077 0.977396 -0.209546
vn 0.007998 0.979615 -0.200724
vn 0.002698 0.997457 -0.071223
vn 0.009031 0.997073 -0.075918
vn 0.091397 0.973725 -0.208580
vn 0.033734 0.996210 -0.080174
vn 0.164048 0.972716 -0.164046
vn 0.063270 0.995989 -0.063263
vn 0.208523 0.973739 -0.091382
vn 0.080140 0.996213 -0.033730
vn 0.209514 0.977399 -0.028197
vn 0.075905 0.997073 -0.009104
vn 0.200724 0.979615 -0.007998
vn 0.071223 0.997457 -0.002698
vn 0.000914 0.999661 -0.026023
vn 0.002304 0.999659 -0.026013
vn 0.008986 0.999652 -0.024818
vn 0.018440 0.999660 -0.018421
vn 0.024823 0.999651 -0.008995
vn 0.026003 0.999659 -0.002349
vn 0.026023 0.999661 -0.000914
vn -0.998998 0.000000 0.044767
vn -0.998998 0.000000 0.044767
vn -0.998998 0.000000 0.044767
vn -0.998998 0.000000 0.044767
vn -0.969302 0.000000 0.245875
vn -0.969302 0.000000 0.245875
vn -0.969302 0.000000 0.245875
vn -0.969302 0.000000 0.245875
vn -0.832070 0.000000 0.554671
vn -0.832070 0.000000 0.554671
vn -0.832070 0.000000 0.554671
vn -0.832070 0.000000 0.554671
vn -0.554671 0.000000 0.832070
vn -0.554671 0.000000 0.832070
vn -0.554671 0.000000 0.832070
vn -0.554671 0.000000 0.832070
vn -0.245875 0.000000 0.969302
vn -0.245875 0.000000 0.969302
vn -0.245875 0.000000 0.969302
vn -0.245875 0.000000 0.969302
vn -0.044767 0.000000 0.998997
vn -0.044767 0.000000 0.998997
vn -0.044767 0.000000 0.998997
vn -0.044767 0.000000 0.998997
vn 1.000000 0.000000 0.000000
vn 1.000000 0.000000 0.000000
vn 1.000000 0.000000 0.000000
vn 1.000000 0.000000 0.000000
vn 0.000000 0.000000 -1.000000
vn 0.000000 0.000000 -1.000000
vn 0.000000 0.000000 -1.000000
vn 0.000000 0.000000 -1.000000
vn 1.000000 0.000000 0.000000
vn 1.000000 0.000000 0.000000
vn 1.000000 0.000000 0.000000
vn 1.000000 0.000000 0.000000
vn 0.000000 0.000000 -1.000000
vn 0.000000 0.000000 -1.000000
vn 0.000000 0.000000 -1.000000
vn 0.000000 0.000000 -1.000000
vn 1.000000 0.000000 0.000000
vn 1.000000 0.000000 0.000000
vn 1.000000 0.000000 0.000000
vn 1.000000 0.000000 0.000000
vn 0.000000 0.000000 -1.000000
vn -0.000000 0.000000 -1.000000
vn -0.000000 0.000000 -1.000000
vn 0.000000 0.000000 -1.000000
vn 1.000000 0.000000 0.000000
vn 1.000000 0.000000 0.000000
vn 1.000000 0.000000 0.000000
vn 1.000000 0.000000 0.000000
vn 0.000000 0.000000 -1.000000
vn 0.000000 0.000000 -1.000000
vn 0.000000 0.000000 -1.000000
vn 0.000000 0.000000 -1.000000
vn 1.000000 0.000000 0.000000
vn 1.000000 0.000000 0.000000
vn 1.000000 0.000000 0.000000
vn 1.000000 0.000000 0.000000
vn 0.000000 0.000000 -1.000000
vn 0.000000 0.000000 -1.000000
vn 0.000000 0.000000 -1.000000
vn 0.000000 0.000000 -1.000000
vn 1.000000 0.000000 0.000000
vn 1.000000 0.000000 0.000000
vn 1.000000 0.000000 0.000000
vn -0.000000 0.000000 -1.000000
f 1/2/1 5/1/2 41/70/3 42/72/4
f 5/4/2 7/3/5 40/68/6 41/71/3
f 7/6/5 9/5/7 39/66/8 40/69/6
f 9/8/7 11/7/9 38/64/10 39/67/8
f 11/10/9 13/9/11 37/62/12 38/65/10
f 13/12/11 3/11/13 36/61/14 37/63/12
f 16/27/15 15/25/16 43/73/17 44/75/18
f 17/29/19 16/26/15 44/74/18 45/77/20
f 18/31/21 17/28/19 45/76/20 46/79/22
f 19/33/23 18/30/21 46/78/22 47/81/24
f 20/35/25 19/32/23 47/80/24 48/83/26
f 21/36/27 20/34/25 48/82/26 49/84/28
f 23/39/29 22/37/30 29/49/31 30/51/32
f 24/41/33 23/38/29 30/50/32 31/53/34
f 25/43/35 24/40/33 31/52/34 32/55/36
f 26/45/37 25/42/35 32/54/36 33/57/38
f 27/47/39 26/44/37 33/56/38 34/59/40
f 28/48/41 27/46/39 34/58/40 35/60/42
f 30/51/32 29/49/31 4/24/43 14/23/44
f 31/53/34 30/50/32 14/22/44 12/21/45
f 32/55/36 31/52/34 12/20/45 10/19/46
f 33/57/38 32/54/36 10/18/46 8/17/47
f 34/59/40 33/56/38 8/16/47 6/15/48
f 35/60/42 34/58/40 6/14/48 2/13/49
f 37/63/12 36/61/14 15/25/16 16/27/15
f 38/65/10 37/62/12 16/26/15 17/29/19
f 39/67/8 38/64/10 17/28/19 18/31/21
f 40/69/6 39/66/8 18/30/21 19/33/23
f 41/71/3 40/68/6 19/32/23 20/35/25
f 42/72/4 41/70/3 20/34/25 21/36/27
f 44/75/18 43/73/17 22/37/30 23/39/29
f 45/77/20 44/74/18 23/38/29 24/41/33
f 46/79/22 45/76/20 24/40/33 25/43/35
f 47/81/24 46/78/22 25/42/35 26/45/37
f 48/83/26 47/80/24 26/44/37 27/47/39
f 49/84/28 48/82/26 27/46/39 28/48/41
f 5/85/50 1/86/51 50/87/52 51/88/53
f 7/89/54 5/90/55 51/91/56 52/92/57
f 9/93/58 7/94/59 52/95/60 53/96/61
f 11/97/62 9/98/63 53/99/64 54/100/65
f 13/101/66 11/102/67 54/103/68 55/104/69
f 3/105/70 13/106/71 55/107/72 56/108/73
f 36/109/74 3/110/75 56/111/76 57/112/77
f 1/113/78 42/114/79 58/115/80 50/116/81
f 43/117/82 15/118/83 59/119/84 60/120/85
f 21/121/86 49/122/87 62/123/88 61/124/89
f 29/125/90 22/126/91 63/127/92 64/128/93
f 28/129/94 35/130/95 66/131/96 65/132/97
f 15/133/98 36/134/99 57/135/100 59/136/101
f 42/137/102 21/138/103 61/139/104 58/140/105
f 22/141/106 43/142/107 60/143/108 63/144/109
f 49/145/110 28/146/111 65/147/112 62/148/113
f 29/149/114 64/150/115 4/151/116
f 66/152/96 35/153/95 2/154/117
